<svg width="11" height="19" viewBox="0 0 11 19" fill="none" xmlns="http://www.w3.org/2000/svg">
<path d="M10 3.96777H7C6.4477 3.96777 6 4.41549 6 4.96777V7.96777H10C10.1137 7.96525 10.2216 8.01817 10.2892 8.10967C10.3568 8.20117 10.3758 8.31977 10.34 8.42777L9.6 10.6278C9.5318 10.8297 9.3431 10.9662 9.13 10.9678H6V18.4678C6 18.7439 5.7761 18.9678 5.5 18.9678H3C2.72386 18.9678 2.5 18.7439 2.5 18.4678V10.9678H1C0.72386 10.9678 0.5 10.7439 0.5 10.4678V8.46777C0.5 8.19167 0.72386 7.96777 1 7.96777H2.5V4.96777C2.5 2.75863 4.2909 0.967773 6.5 0.967773H10C10.2761 0.967773 10.5 1.19163 10.5 1.46777V3.46777C10.5 3.74391 10.2761 3.96777 10 3.96777Z" fill="#1B1B1B"/>
</svg>
