<svg width="19" height="19" viewBox="0 0 19 19" fill="none" xmlns="http://www.w3.org/2000/svg">
<path fill-rule="evenodd" clip-rule="evenodd" d="M13.5 0.967773H5.5C2.73858 0.967773 0.5 3.20635 0.5 5.96777V13.9678C0.5 16.7292 2.73858 18.9678 5.5 18.9678H13.5C16.2614 18.9678 18.5 16.7292 18.5 13.9678V5.96777C18.5 3.20635 16.2614 0.967773 13.5 0.967773ZM16.75 13.9678C16.7445 15.7604 15.2926 17.2123 13.5 17.2178H5.5C3.70735 17.2123 2.25549 15.7604 2.25 13.9678V5.96777C2.25549 4.17512 3.70735 2.72326 5.5 2.71777H13.5C15.2926 2.72326 16.7445 4.17512 16.75 5.96777V13.9678ZM14.25 6.21777C14.8023 6.21777 15.25 5.77005 15.25 5.21777C15.25 4.66549 14.8023 4.21777 14.25 4.21777C13.6977 4.21777 13.25 4.66549 13.25 5.21777C13.25 5.77005 13.6977 6.21777 14.25 6.21777ZM9.5 5.46777C7.01472 5.46777 5 7.48249 5 9.96777C5 12.4531 7.01472 14.4678 9.5 14.4678C11.9853 14.4678 14 12.4531 14 9.96777C14.0027 8.77347 13.5294 7.62734 12.6849 6.78285C11.8404 5.93836 10.6943 5.46511 9.5 5.46777ZM6.75 9.96777C6.75 11.4866 7.9812 12.7178 9.5 12.7178C11.0188 12.7178 12.25 11.4866 12.25 9.96777C12.25 8.44897 11.0188 7.21777 9.5 7.21777C7.9812 7.21777 6.75 8.44897 6.75 9.96777Z" fill="#1B1B1B"/>
</svg>
