<svg width="19" height="19" viewBox="0 0 19 19" fill="none" xmlns="http://www.w3.org/2000/svg">
<path fill-rule="evenodd" clip-rule="evenodd" d="M2.5 0.967773H16.5C17.6046 0.967773 18.5 1.8632 18.5 2.96777V16.9678C18.5 18.0724 17.6046 18.9678 16.5 18.9678H2.5C1.39543 18.9678 0.5 18.0724 0.5 16.9678V2.96777C0.5 1.8632 1.39543 0.967773 2.5 0.967773ZM5.5 15.9678C5.77614 15.9678 6 15.7439 6 15.4678V8.46777C6 8.19167 5.77614 7.96777 5.5 7.96777H4C3.72386 7.96777 3.5 8.19167 3.5 8.46777V15.4678C3.5 15.7439 3.72386 15.9678 4 15.9678H5.5ZM4.75 6.96777C3.92157 6.96777 3.25 6.2962 3.25 5.46777C3.25 4.63934 3.92157 3.96777 4.75 3.96777C5.57843 3.96777 6.25 4.63934 6.25 5.46777C6.25 6.2962 5.57843 6.96777 4.75 6.96777ZM15 15.9678C15.2761 15.9678 15.5 15.7439 15.5 15.4678V10.8678C15.5325 9.27857 14.3576 7.92229 12.78 7.72777C11.677 7.62702 10.6083 8.14217 10 9.06777V8.46777C10 8.19167 9.7761 7.96777 9.5 7.96777H8C7.7239 7.96777 7.5 8.19167 7.5 8.46777V15.4678C7.5 15.7439 7.7239 15.9678 8 15.9678H9.5C9.7761 15.9678 10 15.7439 10 15.4678V11.7178C10 10.8894 10.6716 10.2178 11.5 10.2178C12.3284 10.2178 13 10.8894 13 11.7178V15.4678C13 15.7439 13.2239 15.9678 13.5 15.9678H15Z" fill="#1B1B1B"/>
</svg>
