<svg width="104" height="60" viewBox="0 0 104 60" fill="none" xmlns="http://www.w3.org/2000/svg">
<path d="M24.886 27.8523C26.2713 16.8293 34.821 12.5753 38.9227 11.8262V33.8207C33.6666 36.4242 23.5008 38.8754 24.886 27.8523Z" fill="#1B1B1B"/>
<path d="M27.5838 26.5688C28.8664 16.4032 36.7827 12.4801 40.5806 11.7893V32.0729C35.7139 34.4738 26.3012 36.7343 27.5838 26.5688Z" fill="#F5F5F5"/>
<path d="M78.896 27.8523C77.5107 16.8293 68.961 12.5753 64.8593 11.8262V33.8207C70.1153 36.4242 80.2812 38.8754 78.896 27.8523Z" fill="#1B1B1B"/>
<path d="M76.1981 26.5688C74.9155 16.4032 66.9992 12.4801 63.2014 11.7893V32.0729C68.068 34.4738 77.4808 36.7343 76.1981 26.5688Z" fill="#F5F5F5"/>
<path d="M59.5442 0.498457C57.2257 1.58952 56.1915 3.56707 55.9642 4.41946C59.5442 1.86229 60.9081 3.90802 61.59 4.0785C62.2719 4.24898 63.9767 3.90803 64.1471 2.37372C64.3176 0.839414 62.4424 -0.865371 59.5442 0.498457Z" fill="#1B1B1B"/>
<path d="M44.2119 0.498457C46.5305 1.58952 47.5647 3.56707 47.792 4.41946C44.2119 1.86229 42.8481 3.90802 42.1662 4.0785C41.4843 4.24898 39.7795 3.90803 39.609 2.37372C39.4385 0.839414 41.3138 -0.865371 44.2119 0.498457Z" fill="#1B1B1B"/>
<path d="M66.1929 21.6378C66.1929 29.5466 59.7815 35.958 51.8727 35.958C43.9639 35.958 37.5525 29.5466 37.5525 21.6378C37.5525 13.729 43.9639 7.31763 51.8727 7.31763C59.7815 7.31763 66.1929 13.729 66.1929 21.6378Z" fill="#FBD23F"/>
<path fill-rule="evenodd" clip-rule="evenodd" d="M51.8727 40.3904C61.4763 40.3904 69.2615 32.6052 69.2615 23.0016C69.2615 13.398 61.4763 5.61279 51.8727 5.61279C42.2691 5.61279 34.4839 13.398 34.4839 23.0016C34.4839 32.6052 42.2691 40.3904 51.8727 40.3904ZM51.8727 35.958C59.7815 35.958 66.1929 29.5466 66.1929 21.6378C66.1929 13.7289 59.7815 7.31758 51.8727 7.31758C43.9639 7.31758 37.5525 13.7289 37.5525 21.6378C37.5525 29.5466 43.9639 35.958 51.8727 35.958Z" fill="#1B1B1B"/>
<path d="M59.3738 18.2281C59.3738 22.3708 56.0154 25.7292 51.8727 25.7292C47.73 25.7292 44.3716 22.3708 44.3716 18.2281C44.3716 14.0854 47.73 10.7271 51.8727 10.7271C56.0154 10.7271 59.3738 14.0854 59.3738 18.2281Z" fill="#FBD23F"/>
<path fill-rule="evenodd" clip-rule="evenodd" d="M51.8727 30.8437C57.8985 30.8437 62.7833 25.9589 62.7833 19.9331C62.7833 13.9073 57.8985 9.02246 51.8727 9.02246C45.847 9.02246 40.9621 13.9073 40.9621 19.9331C40.9621 25.9589 45.847 30.8437 51.8727 30.8437ZM51.8727 25.7294C56.0154 25.7294 59.3738 22.371 59.3738 18.2283C59.3738 14.0856 56.0154 10.7272 51.8727 10.7272C47.73 10.7272 44.3717 14.0856 44.3717 18.2283C44.3717 22.371 47.73 25.7294 51.8727 25.7294Z" fill="#1B1B1B"/>
<path d="M54.9413 16.5234C54.9413 18.2182 53.5674 19.5921 51.8727 19.5921C50.1779 19.5921 48.8041 18.2182 48.8041 16.5234C48.8041 14.8287 50.1779 13.4548 51.8727 13.4548C53.5674 13.4548 54.9413 14.8287 54.9413 16.5234Z" fill="#1B1B1B"/>
<path d="M51.8727 16.5234C43.5533 16.5234 41.0189 29.7071 40.7916 36.2989H63.2947C62.9538 29.7071 60.192 16.5234 51.8727 16.5234Z" fill="black" fill-opacity="0.1"/>
<path d="M95.1195 52.1153V49.9456H103.74V52.1153H100.757V59.8643H98.1029V52.1153H95.1195Z" fill="#1B1B1B"/>
<path d="M91.3869 49.9456V59.8643H88.6942V49.9456H91.3869Z" fill="#1B1B1B"/>
<path d="M79.7806 59.8643H75.9642V49.9456H79.7418C80.7621 49.9456 81.6436 50.1441 82.3862 50.5413C83.132 50.9352 83.7067 51.5034 84.1103 52.246C84.5172 52.9854 84.7206 53.8717 84.7206 54.9049C84.7206 55.9381 84.5188 56.826 84.1152 57.5687C83.7116 58.308 83.1401 58.8763 82.4007 59.2734C81.6613 59.6674 80.7879 59.8643 79.7806 59.8643ZM78.657 57.5783H79.6837C80.1745 57.5783 80.5926 57.4992 80.9381 57.341C81.2868 57.1828 81.5515 56.91 81.7324 56.5225C81.9164 56.1351 82.0084 55.5959 82.0084 54.9049C82.0084 54.214 81.9148 53.6748 81.7275 53.2873C81.5435 52.8999 81.2723 52.627 80.9139 52.4688C80.5587 52.3106 80.1228 52.2315 79.6062 52.2315H78.657V57.5783Z" fill="#1B1B1B"/>
<path d="M64.7526 59.8643V49.9456H71.901V52.1153H67.4453V53.8201H71.533V55.9898H67.4453V57.6946H71.8817V59.8643H64.7526Z" fill="#1B1B1B"/>
<path d="M52.915 59.8643V49.9456H57.1963C57.9325 49.9456 58.5766 50.0796 59.1287 50.3475C59.6808 50.6155 60.1103 51.0014 60.417 51.505C60.7237 52.0087 60.8771 52.6125 60.8771 53.3164C60.8771 54.0267 60.7189 54.6256 60.4025 55.1132C60.0893 55.6007 59.6486 55.9688 59.0803 56.2174C58.5153 56.466 57.855 56.5903 57.0994 56.5903H54.5423V54.4981H56.557C56.8734 54.4981 57.143 54.4594 57.3658 54.3819C57.5918 54.3012 57.7646 54.1736 57.884 53.9993C58.0067 53.8249 58.0681 53.5973 58.0681 53.3164C58.0681 53.0323 58.0067 52.8014 57.884 52.6238C57.7646 52.443 57.5918 52.3106 57.3658 52.2267C57.143 52.1395 56.8734 52.0959 56.557 52.0959H55.6078V59.8643H52.915ZM58.7267 55.3118L61.2064 59.8643H58.2812L55.8596 55.3118H58.7267Z" fill="#1B1B1B"/>
<path d="M48.9656 53.6652H46.234C46.2147 53.4392 46.163 53.2342 46.0791 53.0501C45.9983 52.8661 45.8853 52.7079 45.74 52.5755C45.598 52.4399 45.4252 52.3366 45.2218 52.2655C45.0184 52.1913 44.7876 52.1541 44.5293 52.1541C44.0772 52.1541 43.6946 52.2639 43.3814 52.4835C43.0715 52.703 42.8358 53.0178 42.6743 53.4279C42.5161 53.8379 42.437 54.3303 42.437 54.905C42.437 55.512 42.5177 56.0206 42.6792 56.4306C42.8438 56.8375 43.0812 57.1442 43.3911 57.3508C43.7011 57.5542 44.074 57.6559 44.5099 57.6559C44.7585 57.6559 44.9813 57.6253 45.1782 57.5639C45.3752 57.4994 45.5463 57.4073 45.6916 57.2879C45.8369 57.1684 45.9548 57.0247 46.0452 56.8568C46.1388 56.6857 46.2018 56.4936 46.234 56.2805L48.9656 56.2999C48.9333 56.7196 48.8154 57.1474 48.612 57.5833C48.4086 58.016 48.1196 58.4163 47.7451 58.7844C47.3738 59.1492 46.9137 59.4431 46.3648 59.6658C45.8159 59.8886 45.1782 60 44.4518 60C43.5413 60 42.7244 59.8047 42.0011 59.414C41.2811 59.0233 40.7113 58.4486 40.2915 57.6898C39.875 56.9311 39.6667 56.0028 39.6667 54.905C39.6667 53.8008 39.8798 52.8709 40.306 52.1154C40.7322 51.3566 41.307 50.7835 42.0302 50.3961C42.7534 50.0054 43.5606 49.8101 44.4518 49.8101C45.0782 49.8101 45.6545 49.8956 46.1808 50.0667C46.7071 50.2379 47.1688 50.4881 47.5659 50.8174C47.963 51.1435 48.2827 51.5455 48.5248 52.0234C48.767 52.5012 48.9139 53.0485 48.9656 53.6652Z" fill="#1B1B1B"/>
<path d="M23.0493 59.8643V49.9456H30.1977V52.1153H25.742V53.8201H29.8297V55.9898H25.742V57.6946H30.1784V59.8643H23.0493Z" fill="#1B1B1B"/>
<path d="M11.8376 59.8643V49.9456H18.9861V52.1153H14.5304V53.8201H18.618V55.9898H14.5304V57.6946H18.9667V59.8643H11.8376Z" fill="#1B1B1B"/>
<path d="M0 59.8641V49.9453H4.30071C5.05624 49.9453 5.69069 50.047 6.20406 50.2504C6.72066 50.4538 7.10973 50.7412 7.37126 51.1125C7.63602 51.4838 7.7684 51.9213 7.7684 52.425C7.7684 52.7898 7.68768 53.1224 7.52624 53.4227C7.36803 53.723 7.14525 53.9748 6.85789 54.1782C6.57053 54.3784 6.23474 54.5172 5.85051 54.5947V54.6916C6.27671 54.7077 6.66416 54.8159 7.01287 55.0161C7.36157 55.213 7.63925 55.4859 7.84589 55.8346C8.05253 56.18 8.15585 56.5869 8.15585 57.055C8.15585 57.5975 8.01378 58.0802 7.72965 58.5031C7.44875 58.9261 7.04838 59.2587 6.52855 59.5008C6.00872 59.743 5.3888 59.8641 4.66879 59.8641H0ZM2.69279 57.7137H3.952C4.40403 57.7137 4.74305 57.6298 4.96906 57.4619C5.19508 57.2907 5.30808 57.0389 5.30808 56.7063C5.30808 56.4739 5.25481 56.2769 5.14826 56.1155C5.04171 55.954 4.88996 55.8313 4.693 55.7474C4.49928 55.6634 4.26519 55.6215 3.99075 55.6215H2.69279V57.7137ZM2.69279 53.9554H3.79702C4.03272 53.9554 4.24098 53.9183 4.42179 53.844C4.6026 53.7698 4.74305 53.6632 4.84314 53.5244C4.94646 53.3823 4.99812 53.2096 4.99812 53.0062C4.99812 52.6994 4.88834 52.4654 4.66879 52.3039C4.44923 52.1393 4.17156 52.0569 3.83577 52.0569H2.69279V53.9554Z" fill="#1B1B1B"/>
</svg>
