<svg width="33" height="33" viewBox="0 0 33 33" fill="none" xmlns="http://www.w3.org/2000/svg">
<path d="M25.8336 16.6348V17.3014C25.8336 17.6696 25.5352 17.9681 25.167 17.9681H17.5003V25.6348C17.5003 26.0029 17.2018 26.3014 16.8336 26.3014H16.167C15.7988 26.3014 15.5003 26.0029 15.5003 25.6348V17.9681H7.83366C7.46547 17.9681 7.16699 17.6696 7.16699 17.3014V16.6348C7.16699 16.2666 7.46547 15.9681 7.83366 15.9681H15.5003V8.30143C15.5003 7.93324 15.7988 7.63477 16.167 7.63477H16.8336C17.2018 7.63477 17.5003 7.93324 17.5003 8.30143V15.9681H25.167C25.5352 15.9681 25.8336 16.2666 25.8336 16.6348Z" fill="#1B1B1B"/>
</svg>
