<svg width="19" height="16" viewBox="0 0 19 16" fill="none" xmlns="http://www.w3.org/2000/svg">
<path d="M18.4728 2.68518C18.0084 3.3047 17.447 3.84511 16.8103 4.28554C16.8103 4.44737 16.8103 4.6092 16.8103 4.78003C16.8154 7.71888 15.6415 10.5369 13.5518 12.6023C11.462 14.6677 8.6312 15.8077 5.69405 15.7667C3.99599 15.7724 2.31967 15.3847 0.796422 14.6339C0.714282 14.598 0.661312 14.5168 0.661622 14.4271V14.3282C0.661622 14.1991 0.766232 14.0945 0.895272 14.0945C2.56442 14.0394 4.17402 13.4607 5.49634 12.4402C3.98553 12.4097 2.62619 11.5147 2.0006 10.1385C1.96901 10.0634 1.97884 9.97708 2.02657 9.91098C2.07429 9.84488 2.153 9.80848 2.23425 9.81488C2.69342 9.86098 3.15718 9.81828 3.6002 9.68898C1.93239 9.34278 0.679212 7.95818 0.499862 6.26348C0.493492 6.18218 0.529922 6.10348 0.596002 6.05568C0.662072 6.00798 0.748242 5.99808 0.823382 6.02978C1.27094 6.22728 1.75409 6.33128 2.24324 6.33538C0.781842 5.37624 0.150612 3.55183 0.706552 1.894C0.763942 1.73291 0.901812 1.6139 1.0695 1.58072C1.23718 1.54753 1.40996 1.60506 1.52432 1.73217C3.49639 3.83103 6.20604 5.08174 9.0819 5.22057C9.0083 4.92663 8.9721 4.62454 8.9741 4.3215C9.001 2.7325 9.9842 1.31699 11.4634 0.737645C12.9425 0.158315 14.6249 0.529806 15.723 1.67822C16.4714 1.53563 17.195 1.28423 17.8707 0.931985C17.9202 0.901085 17.983 0.901085 18.0325 0.931985C18.0634 0.981505 18.0634 1.0443 18.0325 1.09382C17.7052 1.8433 17.1523 2.4719 16.4509 2.89197C17.0651 2.82074 17.6685 2.67585 18.2482 2.46042C18.297 2.4272 18.3611 2.4272 18.4099 2.46042C18.4508 2.47912 18.4814 2.51489 18.4935 2.5582C18.5056 2.60151 18.498 2.64796 18.4728 2.68518Z" fill="#1B1B1B"/>
</svg>
